<mxfile host="app.diagrams.net" agent="Mozilla/5.0 (Windows NT 10.0; Win64; x64) AppleWebKit/537.36 (KHTML, like Gecko) Chrome/136.0.0.0 Safari/537.36" version="27.0.3">
  <diagram name="Page-1" id="ax6rg3logk3YC__684sa">
    <mxGraphModel dx="468" dy="462" grid="1" gridSize="10" guides="1" tooltips="1" connect="1" arrows="1" fold="1" page="1" pageScale="1" pageWidth="850" pageHeight="1100" math="0" shadow="0">
      <root>
        <mxCell id="0" />
        <mxCell id="1" parent="0" />
        <mxCell id="rBwDIUZfPrqEfZN7oC-l-2" value="Patient" style="html=1;whiteSpace=wrap;" vertex="1" parent="1">
          <mxGeometry x="50" y="220" width="110" height="50" as="geometry" />
        </mxCell>
        <mxCell id="rBwDIUZfPrqEfZN7oC-l-3" value="HealthRecord" style="html=1;whiteSpace=wrap;" vertex="1" parent="1">
          <mxGeometry x="260" y="220" width="110" height="50" as="geometry" />
        </mxCell>
        <mxCell id="rBwDIUZfPrqEfZN7oC-l-4" value="" style="line;strokeWidth=1;fillColor=none;align=left;verticalAlign=middle;spacingTop=-1;spacingLeft=3;spacingRight=3;rotatable=0;labelPosition=right;points=[];portConstraint=eastwest;strokeColor=inherit;" vertex="1" parent="1">
          <mxGeometry x="160" y="241" width="100" height="8" as="geometry" />
        </mxCell>
        <mxCell id="rBwDIUZfPrqEfZN7oC-l-5" value="*" style="text;html=1;align=center;verticalAlign=middle;resizable=0;points=[];autosize=1;strokeColor=none;fillColor=none;" vertex="1" parent="1">
          <mxGeometry x="235" y="218" width="30" height="30" as="geometry" />
        </mxCell>
        <mxCell id="rBwDIUZfPrqEfZN7oC-l-6" value="1" style="text;html=1;align=center;verticalAlign=middle;resizable=0;points=[];autosize=1;strokeColor=none;fillColor=none;" vertex="1" parent="1">
          <mxGeometry x="155" y="218" width="30" height="30" as="geometry" />
        </mxCell>
        <mxCell id="rBwDIUZfPrqEfZN7oC-l-7" value="uploads" style="text;html=1;align=center;verticalAlign=middle;resizable=0;points=[];autosize=1;strokeColor=none;fillColor=none;" vertex="1" parent="1">
          <mxGeometry x="175" y="248" width="70" height="30" as="geometry" />
        </mxCell>
        <mxCell id="rBwDIUZfPrqEfZN7oC-l-8" value="" style="html=1;verticalAlign=bottom;labelBackgroundColor=none;endArrow=block;endFill=1;rounded=0;" edge="1" parent="1">
          <mxGeometry width="160" relative="1" as="geometry">
            <mxPoint x="209.5" y="290" as="sourcePoint" />
            <mxPoint x="209.5" y="350" as="targetPoint" />
          </mxGeometry>
        </mxCell>
        <mxCell id="rBwDIUZfPrqEfZN7oC-l-12" style="edgeStyle=orthogonalEdgeStyle;rounded=0;orthogonalLoop=1;jettySize=auto;html=1;exitX=1;exitY=0.5;exitDx=0;exitDy=0;entryX=0;entryY=0.5;entryDx=0;entryDy=0;" edge="1" parent="1" source="rBwDIUZfPrqEfZN7oC-l-9" target="rBwDIUZfPrqEfZN7oC-l-11">
          <mxGeometry relative="1" as="geometry" />
        </mxCell>
        <mxCell id="rBwDIUZfPrqEfZN7oC-l-9" value="Patient" style="html=1;whiteSpace=wrap;" vertex="1" parent="1">
          <mxGeometry x="50" y="370" width="110" height="50" as="geometry" />
        </mxCell>
        <mxCell id="rBwDIUZfPrqEfZN7oC-l-11" value="HealthRecord" style="html=1;whiteSpace=wrap;" vertex="1" parent="1">
          <mxGeometry x="260" y="370" width="110" height="50" as="geometry" />
        </mxCell>
        <mxCell id="rBwDIUZfPrqEfZN7oC-l-13" value="1" style="text;html=1;align=center;verticalAlign=middle;resizable=0;points=[];autosize=1;strokeColor=none;fillColor=none;" vertex="1" parent="1">
          <mxGeometry x="155" y="368" width="30" height="30" as="geometry" />
        </mxCell>
        <mxCell id="rBwDIUZfPrqEfZN7oC-l-14" value="*" style="text;html=1;align=center;verticalAlign=middle;resizable=0;points=[];autosize=1;strokeColor=none;fillColor=none;" vertex="1" parent="1">
          <mxGeometry x="235" y="368" width="30" height="30" as="geometry" />
        </mxCell>
        <mxCell id="rBwDIUZfPrqEfZN7oC-l-15" value="-records:&lt;div&gt;String&lt;/div&gt;" style="text;html=1;align=center;verticalAlign=middle;resizable=0;points=[];autosize=1;strokeColor=none;fillColor=none;" vertex="1" parent="1">
          <mxGeometry x="195" y="393" width="70" height="40" as="geometry" />
        </mxCell>
      </root>
    </mxGraphModel>
  </diagram>
</mxfile>
